<mxfile host="65bd71144e">
    <diagram name="Pagina-1" id="fh2OpU4I2WQyEPPhwkQ2">
        <mxGraphModel dx="768" dy="611" grid="1" gridSize="10" guides="1" tooltips="1" connect="1" arrows="1" fold="1" page="0" pageScale="1" pageWidth="827" pageHeight="1169" background="none" math="0" shadow="0">
            <root>
                <mxCell id="0"/>
                <mxCell id="1" parent="0"/>
                <mxCell id="IPFcxhHOswjblPO7VA04-1" value="user" style="rounded=1;whiteSpace=wrap;html=1;" parent="1" vertex="1">
                    <mxGeometry x="60" y="20" width="120" height="60" as="geometry"/>
                </mxCell>
                <mxCell id="IPFcxhHOswjblPO7VA04-2" value="server" style="rounded=1;whiteSpace=wrap;html=1;" parent="1" vertex="1">
                    <mxGeometry x="660" y="20" width="120" height="60" as="geometry"/>
                </mxCell>
                <mxCell id="IPFcxhHOswjblPO7VA04-3" value="" style="endArrow=none;dashed=1;html=1;rounded=0;entryX=0.5;entryY=1;entryDx=0;entryDy=0;" parent="1" target="IPFcxhHOswjblPO7VA04-1" edge="1">
                    <mxGeometry width="50" height="50" relative="1" as="geometry">
                        <mxPoint x="120" y="950" as="sourcePoint"/>
                        <mxPoint x="440" y="300" as="targetPoint"/>
                    </mxGeometry>
                </mxCell>
                <mxCell id="IPFcxhHOswjblPO7VA04-4" value="" style="endArrow=none;dashed=1;html=1;rounded=0;entryX=0.5;entryY=1;entryDx=0;entryDy=0;" parent="1" target="IPFcxhHOswjblPO7VA04-2" edge="1">
                    <mxGeometry width="50" height="50" relative="1" as="geometry">
                        <mxPoint x="720" y="940" as="sourcePoint"/>
                        <mxPoint x="440" y="300" as="targetPoint"/>
                    </mxGeometry>
                </mxCell>
                <mxCell id="IPFcxhHOswjblPO7VA04-5" value="" style="endArrow=classic;html=1;rounded=0;" parent="1" edge="1">
                    <mxGeometry width="50" height="50" relative="1" as="geometry">
                        <mxPoint x="120" y="120" as="sourcePoint"/>
                        <mxPoint x="720" y="120" as="targetPoint"/>
                    </mxGeometry>
                </mxCell>
                <mxCell id="IPFcxhHOswjblPO7VA04-6" value="" style="endArrow=classic;html=1;rounded=0;" parent="1" edge="1">
                    <mxGeometry width="50" height="50" relative="1" as="geometry">
                        <mxPoint x="720" y="200" as="sourcePoint"/>
                        <mxPoint x="120" y="200" as="targetPoint"/>
                    </mxGeometry>
                </mxCell>
                <mxCell id="IPFcxhHOswjblPO7VA04-7" value="" style="endArrow=classic;html=1;rounded=0;" parent="1" edge="1">
                    <mxGeometry width="50" height="50" relative="1" as="geometry">
                        <mxPoint x="120" y="280" as="sourcePoint"/>
                        <mxPoint x="720" y="280" as="targetPoint"/>
                    </mxGeometry>
                </mxCell>
                <mxCell id="IPFcxhHOswjblPO7VA04-8" value="" style="endArrow=classic;html=1;rounded=0;" parent="1" edge="1">
                    <mxGeometry width="50" height="50" relative="1" as="geometry">
                        <mxPoint x="720" y="360" as="sourcePoint"/>
                        <mxPoint x="120" y="360" as="targetPoint"/>
                    </mxGeometry>
                </mxCell>
                <mxCell id="IPFcxhHOswjblPO7VA04-9" value="" style="endArrow=classic;html=1;rounded=0;" parent="1" edge="1">
                    <mxGeometry width="50" height="50" relative="1" as="geometry">
                        <mxPoint x="120" y="440" as="sourcePoint"/>
                        <mxPoint x="720" y="440" as="targetPoint"/>
                    </mxGeometry>
                </mxCell>
                <mxCell id="IPFcxhHOswjblPO7VA04-10" value="" style="endArrow=classic;html=1;rounded=0;" parent="1" edge="1">
                    <mxGeometry width="50" height="50" relative="1" as="geometry">
                        <mxPoint x="720" y="520" as="sourcePoint"/>
                        <mxPoint x="120" y="520" as="targetPoint"/>
                    </mxGeometry>
                </mxCell>
                <mxCell id="IPFcxhHOswjblPO7VA04-12" value="CERCA OSPITALITà" style="text;html=1;align=center;verticalAlign=middle;resizable=0;points=[];autosize=1;strokeColor=none;fillColor=none;" parent="1" vertex="1">
                    <mxGeometry x="300" y="18" width="140" height="30" as="geometry"/>
                </mxCell>
                <mxCell id="IPFcxhHOswjblPO7VA04-13" value="Avvia ricerca" style="text;html=1;align=center;verticalAlign=middle;resizable=0;points=[];autosize=1;strokeColor=none;fillColor=none;" parent="1" vertex="1">
                    <mxGeometry x="335" y="88" width="90" height="30" as="geometry"/>
                </mxCell>
                <mxCell id="IPFcxhHOswjblPO7VA04-14" value="form" style="text;html=1;align=center;verticalAlign=middle;resizable=0;points=[];autosize=1;strokeColor=none;fillColor=none;" parent="1" vertex="1">
                    <mxGeometry x="355" y="168" width="50" height="30" as="geometry"/>
                </mxCell>
                <mxCell id="IPFcxhHOswjblPO7VA04-15" value="carcaOpsitalità(Citta,Data in, Data out,animale)" style="text;html=1;align=center;verticalAlign=middle;resizable=0;points=[];autosize=1;strokeColor=none;fillColor=none;" parent="1" vertex="1">
                    <mxGeometry x="245" y="248" width="270" height="30" as="geometry"/>
                </mxCell>
                <mxCell id="IPFcxhHOswjblPO7VA04-16" value="elenco risultati" style="text;html=1;align=center;verticalAlign=middle;resizable=0;points=[];autosize=1;strokeColor=none;fillColor=none;" parent="1" vertex="1">
                    <mxGeometry x="330" y="328" width="100" height="30" as="geometry"/>
                </mxCell>
                <mxCell id="IPFcxhHOswjblPO7VA04-17" value="selezionaPost(Post)" style="text;html=1;align=center;verticalAlign=middle;resizable=0;points=[];autosize=1;strokeColor=none;fillColor=none;" parent="1" vertex="1">
                    <mxGeometry x="325" y="408" width="130" height="30" as="geometry"/>
                </mxCell>
                <mxCell id="IPFcxhHOswjblPO7VA04-18" value="dettagli post" style="text;html=1;align=center;verticalAlign=middle;resizable=0;points=[];autosize=1;strokeColor=none;fillColor=none;" parent="1" vertex="1">
                    <mxGeometry x="350" y="490" width="90" height="30" as="geometry"/>
                </mxCell>
                <mxCell id="IPFcxhHOswjblPO7VA04-19" value="" style="endArrow=classic;html=1;rounded=0;" parent="1" edge="1">
                    <mxGeometry width="50" height="50" relative="1" as="geometry">
                        <mxPoint x="120" y="600" as="sourcePoint"/>
                        <mxPoint x="720" y="600" as="targetPoint"/>
                    </mxGeometry>
                </mxCell>
                <mxCell id="IPFcxhHOswjblPO7VA04-21" value="prenota(Post)" style="text;html=1;align=center;verticalAlign=middle;resizable=0;points=[];autosize=1;strokeColor=none;fillColor=none;" parent="1" vertex="1">
                    <mxGeometry x="340" y="568" width="100" height="30" as="geometry"/>
                </mxCell>
                <mxCell id="IPFcxhHOswjblPO7VA04-22" value="" style="endArrow=classic;html=1;rounded=0;" parent="1" edge="1">
                    <mxGeometry width="50" height="50" relative="1" as="geometry">
                        <mxPoint x="720" y="680" as="sourcePoint"/>
                        <mxPoint x="120" y="680" as="targetPoint"/>
                    </mxGeometry>
                </mxCell>
                <mxCell id="IPFcxhHOswjblPO7VA04-23" value="" style="endArrow=classic;html=1;rounded=0;" parent="1" edge="1">
                    <mxGeometry width="50" height="50" relative="1" as="geometry">
                        <mxPoint x="120" y="760" as="sourcePoint"/>
                        <mxPoint x="720" y="760" as="targetPoint"/>
                    </mxGeometry>
                </mxCell>
                <mxCell id="IPFcxhHOswjblPO7VA04-24" value="form proposta" style="text;html=1;align=center;verticalAlign=middle;whiteSpace=wrap;rounded=0;" parent="1" vertex="1">
                    <mxGeometry x="355" y="650" width="90" height="30" as="geometry"/>
                </mxCell>
                <mxCell id="IPFcxhHOswjblPO7VA04-25" value="CompilaProposta(data in , data out, numero animali,animale,nome)" style="text;html=1;align=center;verticalAlign=middle;whiteSpace=wrap;rounded=0;" parent="1" vertex="1">
                    <mxGeometry x="110" y="730" width="560" height="30" as="geometry"/>
                </mxCell>
                <mxCell id="IPFcxhHOswjblPO7VA04-26" value="" style="endArrow=classic;html=1;rounded=0;" parent="1" edge="1">
                    <mxGeometry width="50" height="50" relative="1" as="geometry">
                        <mxPoint x="720" y="840" as="sourcePoint"/>
                        <mxPoint x="120" y="840" as="targetPoint"/>
                    </mxGeometry>
                </mxCell>
                <mxCell id="IPFcxhHOswjblPO7VA04-27" value="PropostaInviata, riepilogo" style="text;html=1;align=center;verticalAlign=middle;whiteSpace=wrap;rounded=0;" parent="1" vertex="1">
                    <mxGeometry x="325" y="810" width="165" height="30" as="geometry"/>
                </mxCell>
            </root>
        </mxGraphModel>
    </diagram>
</mxfile>